<mxfile host="app.diagrams.net" agent="Mozilla/5.0 (Windows NT 10.0; Win64; x64) AppleWebKit/537.36 (KHTML, like Gecko) Chrome/136.0.0.0 YaBrowser/25.6.0.0 Safari/537.36" version="27.2.0">
  <diagram name="Страница — 1" id="5uqvx95SB5KR8sH2-QEb">
    <mxGraphModel dx="1181" dy="661" grid="1" gridSize="10" guides="1" tooltips="1" connect="1" arrows="1" fold="1" page="1" pageScale="1" pageWidth="827" pageHeight="1169" math="0" shadow="0">
      <root>
        <mxCell id="0" />
        <mxCell id="1" parent="0" />
        <mxCell id="pSgMqcD5M_9IyaEk2qM1-36" value="&lt;i&gt;&lt;b&gt;Вход&lt;/b&gt;&lt;/i&gt;&lt;div&gt;(видео файл&amp;nbsp;&lt;span style=&quot;background-color: transparent; color: light-dark(rgb(0, 0, 0), rgb(255, 255, 255));&quot;&gt;или&amp;nbsp;&lt;/span&gt;&lt;/div&gt;&lt;div&gt;&lt;span style=&quot;background-color: transparent; color: light-dark(rgb(0, 0, 0), rgb(255, 255, 255));&quot;&gt;изображение с камеры)&lt;/span&gt;&lt;/div&gt;" style="shape=ext;margin=3;double=1;whiteSpace=wrap;html=1;align=center;" parent="1" vertex="1">
          <mxGeometry x="550" y="30" width="170" height="70" as="geometry" />
        </mxCell>
        <mxCell id="pSgMqcD5M_9IyaEk2qM1-37" value="VideoReader" style="swimlane;fontStyle=1;childLayout=stackLayout;horizontal=1;startSize=26;horizontalStack=0;resizeParent=1;resizeParentMax=0;resizeLast=0;collapsible=1;marginBottom=0;align=center;fontSize=14;" parent="1" vertex="1">
          <mxGeometry x="490" y="150" width="290" height="130" as="geometry">
            <mxRectangle x="333" y="120" width="120" height="30" as="alternateBounds" />
          </mxGeometry>
        </mxCell>
        <mxCell id="pSgMqcD5M_9IyaEk2qM1-38" value="&lt;span style=&quot;background-color: rgb(39, 40, 34); color: rgb(248, 248, 242); font-family: Consolas, &amp;quot;Courier New&amp;quot;, monospace; white-space: pre;&quot;&gt;source&lt;/span&gt;&amp;nbsp;- путь до видео" style="text;strokeColor=none;fillColor=none;spacingLeft=4;spacingRight=4;overflow=hidden;rotatable=0;points=[[0,0.5],[1,0.5]];portConstraint=eastwest;fontSize=10;whiteSpace=wrap;html=1;" parent="pSgMqcD5M_9IyaEk2qM1-37" vertex="1">
          <mxGeometry y="26" width="290" height="24" as="geometry" />
        </mxCell>
        <mxCell id="pSgMqcD5M_9IyaEk2qM1-39" value="&lt;span style=&quot;background-color: rgb(39, 40, 34); color: rgb(248, 248, 242); font-family: Consolas, &amp;quot;Courier New&amp;quot;, monospace; white-space: pre;&quot;&gt;frame&lt;/span&gt;&amp;nbsp;- матрица размером (1080, 1920, 3), тип данных unit8" style="text;strokeColor=none;fillColor=none;spacingLeft=4;spacingRight=4;overflow=hidden;rotatable=0;points=[[0,0.5],[1,0.5]];portConstraint=eastwest;fontSize=10;whiteSpace=wrap;html=1;" parent="pSgMqcD5M_9IyaEk2qM1-37" vertex="1">
          <mxGeometry y="50" width="290" height="20" as="geometry" />
        </mxCell>
        <mxCell id="pSgMqcD5M_9IyaEk2qM1-40" value="&lt;span style=&quot;background-color: rgb(39, 40, 34); color: rgb(248, 248, 242); font-family: Consolas, &amp;quot;Courier New&amp;quot;, monospace; white-space: pre;&quot;&gt;frame_num&lt;/span&gt;&amp;nbsp;- номер кадра" style="text;strokeColor=none;fillColor=none;spacingLeft=4;spacingRight=4;overflow=hidden;rotatable=0;points=[[0,0.5],[1,0.5]];portConstraint=eastwest;fontSize=10;whiteSpace=wrap;html=1;" parent="pSgMqcD5M_9IyaEk2qM1-37" vertex="1">
          <mxGeometry y="70" width="290" height="20" as="geometry" />
        </mxCell>
        <mxCell id="pSgMqcD5M_9IyaEk2qM1-49" value="&lt;span style=&quot;background-color: rgb(39, 40, 34); color: rgb(248, 248, 242); font-family: Consolas, &amp;quot;Courier New&amp;quot;, monospace; white-space: pre;&quot;&gt;frame_width&lt;/span&gt;&amp;nbsp;- ширина кадра (1920)" style="text;strokeColor=none;fillColor=none;spacingLeft=4;spacingRight=4;overflow=hidden;rotatable=0;points=[[0,0.5],[1,0.5]];portConstraint=eastwest;fontSize=10;whiteSpace=wrap;html=1;" parent="pSgMqcD5M_9IyaEk2qM1-37" vertex="1">
          <mxGeometry y="90" width="290" height="20" as="geometry" />
        </mxCell>
        <mxCell id="pSgMqcD5M_9IyaEk2qM1-50" value="&lt;span style=&quot;background-color: rgb(39, 40, 34); color: rgb(248, 248, 242); font-family: Consolas, &amp;quot;Courier New&amp;quot;, monospace; white-space: pre;&quot;&gt;frame_height&lt;/span&gt;&amp;nbsp;- высота кадра (1080)" style="text;strokeColor=none;fillColor=none;spacingLeft=4;spacingRight=4;overflow=hidden;rotatable=0;points=[[0,0.5],[1,0.5]];portConstraint=eastwest;fontSize=10;whiteSpace=wrap;html=1;" parent="pSgMqcD5M_9IyaEk2qM1-37" vertex="1">
          <mxGeometry y="110" width="290" height="20" as="geometry" />
        </mxCell>
        <mxCell id="pSgMqcD5M_9IyaEk2qM1-45" value="" style="endArrow=classic;html=1;rounded=0;exitX=0.5;exitY=1;exitDx=0;exitDy=0;entryX=0.5;entryY=0;entryDx=0;entryDy=0;" parent="1" source="pSgMqcD5M_9IyaEk2qM1-36" target="pSgMqcD5M_9IyaEk2qM1-37" edge="1">
          <mxGeometry relative="1" as="geometry">
            <mxPoint x="380" y="190" as="sourcePoint" />
            <mxPoint x="480" y="190" as="targetPoint" />
          </mxGeometry>
        </mxCell>
        <mxCell id="pSgMqcD5M_9IyaEk2qM1-46" value="&lt;span style=&quot;color: rgb(51, 51, 51); font-family: &amp;quot;YS Text&amp;quot;, -apple-system, BlinkMacSystemFont, Arial, Helvetica, &amp;quot;Arial Unicode MS&amp;quot;, sans-serif; text-align: left; text-wrap-mode: wrap;&quot;&gt;&lt;font style=&quot;font-size: 12px;&quot;&gt;MP4&lt;/font&gt;&lt;/span&gt;" style="edgeLabel;resizable=0;html=1;;align=center;verticalAlign=middle;" parent="pSgMqcD5M_9IyaEk2qM1-45" connectable="0" vertex="1">
          <mxGeometry relative="1" as="geometry" />
        </mxCell>
        <mxCell id="pSgMqcD5M_9IyaEk2qM1-54" value="FrameElement" style="swimlane;fontStyle=1;childLayout=stackLayout;horizontal=1;startSize=30;horizontalStack=0;resizeParent=1;resizeParentMax=0;resizeLast=0;collapsible=1;marginBottom=0;whiteSpace=wrap;html=1;fontSize=14;" parent="1" vertex="1">
          <mxGeometry x="70" y="160" width="150" height="374" as="geometry" />
        </mxCell>
        <mxCell id="pSgMqcD5M_9IyaEk2qM1-62" value="&lt;span style=&quot;background-color: rgb(39, 40, 34); color: rgb(248, 248, 242); font-family: Consolas, &amp;quot;Courier New&amp;quot;, monospace; white-space: pre;&quot;&gt;source&lt;/span&gt;" style="text;strokeColor=none;fillColor=none;spacingLeft=4;spacingRight=4;overflow=hidden;rotatable=0;points=[[0,0.5],[1,0.5]];portConstraint=eastwest;fontSize=10;whiteSpace=wrap;html=1;align=center;" parent="pSgMqcD5M_9IyaEk2qM1-54" vertex="1">
          <mxGeometry y="30" width="150" height="24" as="geometry" />
        </mxCell>
        <mxCell id="pSgMqcD5M_9IyaEk2qM1-63" value="&lt;span style=&quot;color: rgb(248, 248, 242); font-family: Consolas, &amp;quot;Courier New&amp;quot;, monospace; white-space: pre; background-color: rgb(51, 51, 255);&quot;&gt;frame&lt;/span&gt;" style="text;strokeColor=none;fillColor=none;spacingLeft=4;spacingRight=4;overflow=hidden;rotatable=0;points=[[0,0.5],[1,0.5]];portConstraint=eastwest;fontSize=10;whiteSpace=wrap;html=1;align=center;" parent="pSgMqcD5M_9IyaEk2qM1-54" vertex="1">
          <mxGeometry y="54" width="150" height="20" as="geometry" />
        </mxCell>
        <mxCell id="pSgMqcD5M_9IyaEk2qM1-64" value="&lt;span style=&quot;color: rgb(248, 248, 242); font-family: Consolas, &amp;quot;Courier New&amp;quot;, monospace; white-space: pre; background-color: rgb(51, 51, 255);&quot;&gt;frame_num&lt;/span&gt;" style="text;strokeColor=none;fillColor=none;spacingLeft=4;spacingRight=4;overflow=hidden;rotatable=0;points=[[0,0.5],[1,0.5]];portConstraint=eastwest;fontSize=10;whiteSpace=wrap;html=1;align=center;" parent="pSgMqcD5M_9IyaEk2qM1-54" vertex="1">
          <mxGeometry y="74" width="150" height="20" as="geometry" />
        </mxCell>
        <mxCell id="pSgMqcD5M_9IyaEk2qM1-65" value="&lt;span style=&quot;background-color: rgb(39, 40, 34); color: rgb(248, 248, 242); font-family: Consolas, &amp;quot;Courier New&amp;quot;, monospace; white-space: pre;&quot;&gt;frame_width&lt;/span&gt;" style="text;strokeColor=none;fillColor=none;spacingLeft=4;spacingRight=4;overflow=hidden;rotatable=0;points=[[0,0.5],[1,0.5]];portConstraint=eastwest;fontSize=10;whiteSpace=wrap;html=1;align=center;" parent="pSgMqcD5M_9IyaEk2qM1-54" vertex="1">
          <mxGeometry y="94" width="150" height="20" as="geometry" />
        </mxCell>
        <mxCell id="pSgMqcD5M_9IyaEk2qM1-66" value="&lt;span style=&quot;background-color: rgb(39, 40, 34); color: rgb(248, 248, 242); font-family: Consolas, &amp;quot;Courier New&amp;quot;, monospace; white-space: pre;&quot;&gt;frame_height&lt;/span&gt;" style="text;strokeColor=none;fillColor=none;spacingLeft=4;spacingRight=4;overflow=hidden;rotatable=0;points=[[0,0.5],[1,0.5]];portConstraint=eastwest;fontSize=10;whiteSpace=wrap;html=1;align=center;" parent="pSgMqcD5M_9IyaEk2qM1-54" vertex="1">
          <mxGeometry y="114" width="150" height="20" as="geometry" />
        </mxCell>
        <mxCell id="pSgMqcD5M_9IyaEk2qM1-55" value="&lt;span style=&quot;color: rgb(248, 248, 242); font-family: Consolas, &amp;quot;Courier New&amp;quot;, monospace; font-size: 10px; text-align: left; white-space: pre; background-color: rgb(39, 40, 34);&quot;&gt;coeff&lt;/span&gt;" style="text;strokeColor=none;fillColor=none;align=center;verticalAlign=middle;spacingLeft=4;spacingRight=4;overflow=hidden;points=[[0,0.5],[1,0.5]];portConstraint=eastwest;rotatable=0;whiteSpace=wrap;html=1;" parent="pSgMqcD5M_9IyaEk2qM1-54" vertex="1">
          <mxGeometry y="134" width="150" height="30" as="geometry" />
        </mxCell>
        <mxCell id="pSgMqcD5M_9IyaEk2qM1-56" value="Item 2" style="text;strokeColor=none;fillColor=none;align=center;verticalAlign=middle;spacingLeft=4;spacingRight=4;overflow=hidden;points=[[0,0.5],[1,0.5]];portConstraint=eastwest;rotatable=0;whiteSpace=wrap;html=1;" parent="pSgMqcD5M_9IyaEk2qM1-54" vertex="1">
          <mxGeometry y="164" width="150" height="30" as="geometry" />
        </mxCell>
        <mxCell id="pSgMqcD5M_9IyaEk2qM1-57" value="Item 3" style="text;strokeColor=none;fillColor=none;align=center;verticalAlign=middle;spacingLeft=4;spacingRight=4;overflow=hidden;points=[[0,0.5],[1,0.5]];portConstraint=eastwest;rotatable=0;whiteSpace=wrap;html=1;" parent="pSgMqcD5M_9IyaEk2qM1-54" vertex="1">
          <mxGeometry y="194" width="150" height="30" as="geometry" />
        </mxCell>
        <mxCell id="pSgMqcD5M_9IyaEk2qM1-76" value="Item 3" style="text;strokeColor=none;fillColor=none;align=center;verticalAlign=middle;spacingLeft=4;spacingRight=4;overflow=hidden;points=[[0,0.5],[1,0.5]];portConstraint=eastwest;rotatable=0;whiteSpace=wrap;html=1;" parent="pSgMqcD5M_9IyaEk2qM1-54" vertex="1">
          <mxGeometry y="224" width="150" height="30" as="geometry" />
        </mxCell>
        <mxCell id="pSgMqcD5M_9IyaEk2qM1-59" value="Item 3" style="text;strokeColor=none;fillColor=none;align=center;verticalAlign=middle;spacingLeft=4;spacingRight=4;overflow=hidden;points=[[0,0.5],[1,0.5]];portConstraint=eastwest;rotatable=0;whiteSpace=wrap;html=1;" parent="pSgMqcD5M_9IyaEk2qM1-54" vertex="1">
          <mxGeometry y="254" width="150" height="30" as="geometry" />
        </mxCell>
        <mxCell id="pSgMqcD5M_9IyaEk2qM1-58" value="Item 3" style="text;strokeColor=none;fillColor=none;align=center;verticalAlign=middle;spacingLeft=4;spacingRight=4;overflow=hidden;points=[[0,0.5],[1,0.5]];portConstraint=eastwest;rotatable=0;whiteSpace=wrap;html=1;" parent="pSgMqcD5M_9IyaEk2qM1-54" vertex="1">
          <mxGeometry y="284" width="150" height="30" as="geometry" />
        </mxCell>
        <mxCell id="pSgMqcD5M_9IyaEk2qM1-60" value="Item 3" style="text;strokeColor=none;fillColor=none;align=center;verticalAlign=middle;spacingLeft=4;spacingRight=4;overflow=hidden;points=[[0,0.5],[1,0.5]];portConstraint=eastwest;rotatable=0;whiteSpace=wrap;html=1;" parent="pSgMqcD5M_9IyaEk2qM1-54" vertex="1">
          <mxGeometry y="314" width="150" height="30" as="geometry" />
        </mxCell>
        <mxCell id="pSgMqcD5M_9IyaEk2qM1-61" value="Item 3" style="text;strokeColor=none;fillColor=none;align=center;verticalAlign=middle;spacingLeft=4;spacingRight=4;overflow=hidden;points=[[0,0.5],[1,0.5]];portConstraint=eastwest;rotatable=0;whiteSpace=wrap;html=1;" parent="pSgMqcD5M_9IyaEk2qM1-54" vertex="1">
          <mxGeometry y="344" width="150" height="30" as="geometry" />
        </mxCell>
        <mxCell id="pSgMqcD5M_9IyaEk2qM1-74" style="edgeStyle=elbowEdgeStyle;rounded=0;orthogonalLoop=1;jettySize=auto;html=1;exitX=1;exitY=0.5;exitDx=0;exitDy=0;" parent="pSgMqcD5M_9IyaEk2qM1-54" source="pSgMqcD5M_9IyaEk2qM1-57" target="pSgMqcD5M_9IyaEk2qM1-57" edge="1">
          <mxGeometry relative="1" as="geometry" />
        </mxCell>
        <mxCell id="pSgMqcD5M_9IyaEk2qM1-67" value="" style="endArrow=classic;html=1;rounded=0;exitX=0;exitY=0.5;exitDx=0;exitDy=0;entryX=1;entryY=0.5;entryDx=0;entryDy=0;edgeStyle=orthogonalEdgeStyle;" parent="1" source="pSgMqcD5M_9IyaEk2qM1-38" target="pSgMqcD5M_9IyaEk2qM1-62" edge="1">
          <mxGeometry width="50" height="50" relative="1" as="geometry">
            <mxPoint x="410" y="450" as="sourcePoint" />
            <mxPoint x="460" y="400" as="targetPoint" />
          </mxGeometry>
        </mxCell>
        <mxCell id="pSgMqcD5M_9IyaEk2qM1-68" value="" style="endArrow=classic;html=1;rounded=0;exitX=0;exitY=0.5;exitDx=0;exitDy=0;entryX=1;entryY=0.5;entryDx=0;entryDy=0;edgeStyle=orthogonalEdgeStyle;" parent="1" source="pSgMqcD5M_9IyaEk2qM1-39" target="pSgMqcD5M_9IyaEk2qM1-63" edge="1">
          <mxGeometry width="50" height="50" relative="1" as="geometry">
            <mxPoint x="410" y="450" as="sourcePoint" />
            <mxPoint x="460" y="400" as="targetPoint" />
          </mxGeometry>
        </mxCell>
        <mxCell id="pSgMqcD5M_9IyaEk2qM1-70" value="" style="endArrow=classic;html=1;rounded=0;exitX=0;exitY=0.5;exitDx=0;exitDy=0;entryX=1;entryY=0.5;entryDx=0;entryDy=0;edgeStyle=orthogonalEdgeStyle;" parent="1" source="pSgMqcD5M_9IyaEk2qM1-40" target="pSgMqcD5M_9IyaEk2qM1-64" edge="1">
          <mxGeometry width="50" height="50" relative="1" as="geometry">
            <mxPoint x="410" y="450" as="sourcePoint" />
            <mxPoint x="460" y="400" as="targetPoint" />
          </mxGeometry>
        </mxCell>
        <mxCell id="pSgMqcD5M_9IyaEk2qM1-71" value="" style="endArrow=classic;html=1;rounded=0;exitX=0;exitY=0.5;exitDx=0;exitDy=0;entryX=1;entryY=0.5;entryDx=0;entryDy=0;edgeStyle=orthogonalEdgeStyle;" parent="1" source="pSgMqcD5M_9IyaEk2qM1-49" target="pSgMqcD5M_9IyaEk2qM1-65" edge="1">
          <mxGeometry width="50" height="50" relative="1" as="geometry">
            <mxPoint x="730" y="250" as="sourcePoint" />
            <mxPoint x="480" y="264" as="targetPoint" />
          </mxGeometry>
        </mxCell>
        <mxCell id="pSgMqcD5M_9IyaEk2qM1-72" value="" style="endArrow=classic;html=1;rounded=0;exitX=0;exitY=0.5;exitDx=0;exitDy=0;entryX=1;entryY=0.5;entryDx=0;entryDy=0;edgeStyle=orthogonalEdgeStyle;" parent="1" source="pSgMqcD5M_9IyaEk2qM1-50" target="pSgMqcD5M_9IyaEk2qM1-66" edge="1">
          <mxGeometry width="50" height="50" relative="1" as="geometry">
            <mxPoint x="580" y="300" as="sourcePoint" />
            <mxPoint x="330" y="314" as="targetPoint" />
          </mxGeometry>
        </mxCell>
        <mxCell id="pSgMqcD5M_9IyaEk2qM1-79" value="SegmentationNodes" style="swimlane;fontStyle=1;childLayout=stackLayout;horizontal=1;startSize=26;horizontalStack=0;resizeParent=1;resizeParentMax=0;resizeLast=0;collapsible=1;marginBottom=0;align=center;fontSize=14;" parent="1" vertex="1">
          <mxGeometry x="490" y="310" width="290" height="50" as="geometry">
            <mxRectangle x="333" y="120" width="120" height="30" as="alternateBounds" />
          </mxGeometry>
        </mxCell>
        <mxCell id="pSgMqcD5M_9IyaEk2qM1-80" value="&lt;span style=&quot;background-color: rgb(39, 40, 34); color: rgb(248, 248, 242); font-family: Consolas, &amp;quot;Courier New&amp;quot;, monospace; white-space: pre;&quot;&gt;coeff&lt;/span&gt;&amp;nbsp;- коэфф. заполнетости парковки" style="text;strokeColor=none;fillColor=none;spacingLeft=4;spacingRight=4;overflow=hidden;rotatable=0;points=[[0,0.5],[1,0.5]];portConstraint=eastwest;fontSize=10;whiteSpace=wrap;html=1;" parent="pSgMqcD5M_9IyaEk2qM1-79" vertex="1">
          <mxGeometry y="26" width="290" height="24" as="geometry" />
        </mxCell>
        <mxCell id="pSgMqcD5M_9IyaEk2qM1-88" style="edgeStyle=elbowEdgeStyle;rounded=0;orthogonalLoop=1;jettySize=auto;html=1;entryX=0;entryY=0.25;entryDx=0;entryDy=0;strokeColor=light-dark(#3333FF,#3333FF);" parent="1" source="pSgMqcD5M_9IyaEk2qM1-63" target="pSgMqcD5M_9IyaEk2qM1-79" edge="1">
          <mxGeometry relative="1" as="geometry">
            <Array as="points">
              <mxPoint x="330" y="270" />
            </Array>
          </mxGeometry>
        </mxCell>
        <mxCell id="pSgMqcD5M_9IyaEk2qM1-89" style="edgeStyle=elbowEdgeStyle;rounded=0;orthogonalLoop=1;jettySize=auto;html=1;entryX=0;entryY=0.25;entryDx=0;entryDy=0;strokeColor=#3333FF;" parent="1" source="pSgMqcD5M_9IyaEk2qM1-64" target="pSgMqcD5M_9IyaEk2qM1-79" edge="1">
          <mxGeometry relative="1" as="geometry">
            <Array as="points">
              <mxPoint x="310" y="280" />
            </Array>
          </mxGeometry>
        </mxCell>
        <mxCell id="V50TbnZM8FNZA3HZuHWU-1" value="" style="endArrow=classic;html=1;rounded=0;entryX=1;entryY=0.5;entryDx=0;entryDy=0;exitX=0;exitY=0.5;exitDx=0;exitDy=0;edgeStyle=orthogonalEdgeStyle;strokeColor=#000000;" edge="1" parent="1" source="pSgMqcD5M_9IyaEk2qM1-80" target="pSgMqcD5M_9IyaEk2qM1-55">
          <mxGeometry width="50" height="50" relative="1" as="geometry">
            <mxPoint x="720" y="390" as="sourcePoint" />
            <mxPoint x="770" y="340" as="targetPoint" />
            <Array as="points">
              <mxPoint x="290" y="348" />
              <mxPoint x="290" y="309" />
            </Array>
          </mxGeometry>
        </mxCell>
      </root>
    </mxGraphModel>
  </diagram>
</mxfile>
